<svg width="35" height="35" viewBox="0 0 35 35" fill="none" xmlns="http://www.w3.org/2000/svg">
<path opacity="0.1" fill-rule="evenodd" clip-rule="evenodd" d="M0.55957 17.0773C0.55957 7.64575 8.20532 0 17.6368 0C27.0683 0 34.7141 7.64575 34.7141 17.0773C34.7141 26.5088 27.0683 34.1545 17.6368 34.1545C8.20532 34.1545 0.55957 26.5088 0.55957 17.0773Z" fill="white"/>
<path d="M24.2844 22.0137L25.0415 17.0773H20.3052V13.8754C20.3052 12.5245 20.9656 11.207 23.087 11.207H25.2416V7.00444C25.2416 7.00444 23.2871 6.6709 21.4193 6.6709C17.5168 6.6709 14.9686 9.0357 14.9686 13.315V17.0773H10.6326V22.0137H14.9686V33.9478C15.8391 34.0846 16.7297 34.1546 17.6369 34.1546C18.5441 34.1546 19.4347 34.0846 20.3052 33.9478V22.0137H24.2844Z" fill="white"/>
</svg>
