<svg width="35" height="35" viewBox="0 0 35 35" fill="none" xmlns="http://www.w3.org/2000/svg">
<path opacity="0.1" fill-rule="evenodd" clip-rule="evenodd" d="M0.503418 17.0773C0.503418 7.64575 8.14916 0 17.5807 0C27.0122 0 34.6579 7.64575 34.6579 17.0773C34.6579 26.5088 27.0122 34.1545 17.5807 34.1545C8.14916 34.1545 0.503418 26.5088 0.503418 17.0773Z" fill="white"/>
<path d="M12.8267 10.5476C12.8016 9.40744 11.9863 8.53906 10.6624 8.53906C9.33844 8.53906 8.4729 9.40744 8.4729 10.5476C8.4729 11.6641 9.31286 12.5574 10.6121 12.5574H10.6369C11.9863 12.5574 12.8267 11.6641 12.8267 10.5476Z" fill="white"/>
<path d="M12.5718 14.1446H8.70175V25.7726H12.5718V14.1446Z" fill="white"/>
<path d="M22.0729 13.8715C24.6196 13.8715 26.5288 15.5338 26.5288 19.1054L26.5287 25.7726H22.6587V19.5516C22.6587 17.989 22.0987 16.9228 20.6977 16.9228C19.6285 16.9228 18.9917 17.6416 18.712 18.3358C18.6097 18.5847 18.5846 18.9313 18.5846 19.2788V25.7729H14.714C14.714 25.7729 14.765 15.236 14.714 14.1449H18.5846V15.7919C19.0982 15.0002 20.0182 13.8715 22.0729 13.8715Z" fill="white"/>
</svg>
