<svg width="38" height="38" viewBox="0 0 38 38" fill="none" xmlns="http://www.w3.org/2000/svg">
<circle cx="19" cy="19" r="19" fill="#FF781C"/>
<path d="M14.3538 12.0085C14.3287 10.8684 13.5134 10 12.1895 10C10.8655 10 10 10.8684 10 12.0085C10 13.125 10.84 14.0184 12.1392 14.0184H12.164C13.5134 14.0184 14.3538 13.125 14.3538 12.0085Z" fill="white"/>
<path d="M14.0989 15.6056H10.2289V27.2335H14.0989V15.6056Z" fill="white"/>
<path d="M23.6 15.3325C26.1467 15.3325 28.0559 16.9948 28.0559 20.5664L28.0558 27.2335H24.1858V21.0125C24.1858 19.4499 23.6258 18.3837 22.2248 18.3837C21.1556 18.3837 20.5188 19.1025 20.2391 19.7968C20.1368 20.0456 20.1117 20.3923 20.1117 20.7398V27.2338H16.2411C16.2411 27.2338 16.2921 16.6969 16.2411 15.6058H20.1117V17.2528C20.6253 16.4611 21.5453 15.3325 23.6 15.3325Z" fill="white"/>
</svg>
