<svg width="35" height="35" viewBox="0 0 35 35" fill="none" xmlns="http://www.w3.org/2000/svg">
<path opacity="0.1" fill-rule="evenodd" clip-rule="evenodd" d="M0.615479 17.0773C0.615479 7.64575 8.26123 0 17.6927 0C27.1242 0 34.77 7.64575 34.77 17.0773C34.77 26.5088 27.1242 34.1545 17.6927 34.1545C8.26123 34.1545 0.615479 26.5088 0.615479 17.0773Z" fill="white"/>
<path fill-rule="evenodd" clip-rule="evenodd" d="M17.1812 13.8803L17.2171 14.4713L16.6198 14.3989C14.4458 14.1215 12.5465 13.1809 10.9339 11.6011L10.1455 10.8173L9.94244 11.3961C9.51241 12.6865 9.78715 14.0492 10.683 14.9657C11.1608 15.4722 11.0533 15.5445 10.2291 15.2431C9.94244 15.1466 9.69159 15.0742 9.6677 15.1104C9.58408 15.1948 9.87076 16.2922 10.0977 16.7264C10.4083 17.3293 11.0414 17.9203 11.7342 18.27L12.3195 18.5473L11.6267 18.5594C10.9578 18.5594 10.9339 18.5715 11.0056 18.8247C11.2445 19.6086 12.1881 20.4407 13.2393 20.8025L13.9799 21.0557L13.3349 21.4416C12.3793 21.9963 11.2564 22.3099 10.1336 22.334C9.59602 22.3461 9.15405 22.3943 9.15405 22.4305C9.15405 22.5511 10.6114 23.2264 11.4595 23.4917C14.0038 24.2756 17.0259 23.9379 19.2955 22.5993C20.9081 21.6466 22.5207 19.7533 23.2733 17.9203C23.6794 16.9434 24.0855 15.1586 24.0855 14.3024C24.0855 13.7477 24.1214 13.6753 24.7903 13.0121C25.1845 12.6262 25.5548 12.2041 25.6265 12.0835C25.7459 11.8544 25.734 11.8544 25.1248 12.0594C24.1094 12.4212 23.9661 12.3729 24.4678 11.8302C24.8381 11.4443 25.2801 10.7449 25.2801 10.5399C25.2801 10.5037 25.1009 10.564 24.8978 10.6725C24.6828 10.7931 24.205 10.974 23.8466 11.0826L23.2016 11.2876L22.6163 10.8896C22.2938 10.6725 21.8398 10.4314 21.6009 10.359C20.9917 10.1902 20.06 10.2143 19.5105 10.4072C18.0174 10.9499 17.0737 12.3488 17.1812 13.8803Z" fill="white"/>
</svg>
