<svg width="38" height="38" viewBox="0 0 38 38" fill="none" xmlns="http://www.w3.org/2000/svg">
<circle cx="19" cy="19" r="19" fill="#FF781C"/>
<path fill-rule="evenodd" clip-rule="evenodd" d="M19.2256 15.1768L19.2668 15.856L18.5803 15.7728C16.0817 15.454 13.8989 14.373 12.0456 12.5573L11.1395 11.6564L10.9061 12.3217C10.4119 13.8047 10.7276 15.3709 11.7573 16.4242C12.3064 17.0063 12.1828 17.0895 11.2356 16.743C10.9061 16.6321 10.6178 16.549 10.5903 16.5905C10.4942 16.6876 10.8237 17.9488 11.0846 18.4478C11.4415 19.1407 12.1691 19.8199 12.9654 20.2218L13.6381 20.5406L12.8418 20.5544C12.073 20.5544 12.0456 20.5683 12.1279 20.8594C12.4025 21.7603 13.4871 22.7166 14.6952 23.1324L15.5463 23.4234L14.805 23.8669C13.7067 24.5045 12.4162 24.8649 11.1257 24.8926C10.508 24.9064 10 24.9619 10 25.0035C10 25.1421 11.6749 25.9182 12.6496 26.2231C15.5738 27.124 19.0471 26.7359 21.6555 25.1975C23.5089 24.1026 25.3622 21.9266 26.2271 19.8199C26.6939 18.6972 27.1607 16.646 27.1607 15.6619C27.1607 15.0244 27.2019 14.9412 27.9707 14.1789C28.4237 13.7354 28.8493 13.2503 28.9317 13.1117C29.069 12.8484 29.0552 12.8484 28.3551 13.084C27.1881 13.4998 27.0234 13.4444 27.6 12.8207C28.0256 12.3771 28.5335 11.5733 28.5335 11.3377C28.5335 11.2961 28.3276 11.3654 28.0942 11.4901C27.8471 11.6287 27.298 11.8366 26.8861 11.9613L26.1448 12.197L25.4721 11.7396C25.1014 11.4901 24.5797 11.2129 24.3051 11.1298C23.605 10.9357 22.5342 10.9634 21.9026 11.1852C20.1866 11.8089 19.102 13.4166 19.2256 15.1768Z" fill="white"/>
</svg>
