<svg width="38" height="38" viewBox="0 0 38 38" fill="none" xmlns="http://www.w3.org/2000/svg">
<circle cx="19" cy="19" r="19" fill="#FF781C"/>
<path fill-rule="evenodd" clip-rule="evenodd" d="M27.7044 11.4506C28.608 11.6986 29.3196 12.4292 29.5611 13.3569C30 15.0384 30 18.5469 30 18.5469C30 18.5469 30 22.0552 29.5611 23.7368C29.3196 24.6646 28.608 25.3952 27.7044 25.6432C26.0669 26.0938 19.5 26.0938 19.5 26.0938C19.5 26.0938 12.9331 26.0938 11.2954 25.6432C10.3918 25.3952 9.68023 24.6646 9.43873 23.7368C9 22.0552 9 18.5469 9 18.5469C9 18.5469 9 15.0384 9.43873 13.3569C9.68023 12.4292 10.3918 11.6986 11.2954 11.4506C12.9331 11 19.5 11 19.5 11C19.5 11 26.0669 11 27.7044 11.4506ZM17.5313 15.5937V22.1562L22.7813 18.8751L17.5313 15.5937Z" fill="white"/>
</svg>
