<svg width="35" height="35" viewBox="0 0 35 35" fill="none" xmlns="http://www.w3.org/2000/svg">
<path opacity="0.1" fill-rule="evenodd" clip-rule="evenodd" d="M0.671631 17.0773C0.671631 7.64575 8.31738 0 17.7489 0C27.1804 0 34.8261 7.64575 34.8261 17.0773C34.8261 26.5088 27.1804 34.1545 17.7489 34.1545C8.31738 34.1545 0.671631 26.5088 0.671631 17.0773Z" fill="white"/>
<path fill-rule="evenodd" clip-rule="evenodd" d="M24.8656 11.2063C25.6494 11.4214 26.2667 12.0551 26.4762 12.8599C26.8569 14.3184 26.8569 17.3617 26.8569 17.3617C26.8569 17.3617 26.8569 20.4049 26.4762 21.8635C26.2667 22.6683 25.6494 23.302 24.8656 23.5172C23.4452 23.908 17.749 23.908 17.749 23.908C17.749 23.908 12.0527 23.908 10.6322 23.5172C9.84842 23.302 9.23116 22.6683 9.02168 21.8635C8.64111 20.4049 8.64111 17.3617 8.64111 17.3617C8.64111 17.3617 8.64111 14.3184 9.02168 12.8599C9.23116 12.0551 9.84842 11.4214 10.6322 11.2063C12.0527 10.8154 17.749 10.8154 17.749 10.8154C17.749 10.8154 23.4452 10.8154 24.8656 11.2063ZM16.0413 14.8001V20.4925L20.5952 17.6464L16.0413 14.8001Z" fill="white"/>
</svg>
