<svg id="Capa_1" data-name="Capa 1" xmlns="http://www.w3.org/2000/svg" xmlns:xlink="http://www.w3.org/1999/xlink" viewBox="0 0 426 533"><defs><style>.cls-1{fill:#fff;}.cls-2{clip-path:url(#clip-path);}</style><clipPath id="clip-path"><path class="cls-1" d="M232,389.32v-112h37.61l5.63-43.67H232V205.73c0-12.64,3.51-21.26,21.64-21.26h23.12V145.4a309.69,309.69,0,0,0-33.69-1.72c-33.34,0-56.17,20.35-56.17,57.72v32.21h-37.7v43.67h37.7v112Z"/></clipPath></defs><path class="cls-1" d="M232,389.32v-112h37.61l5.63-43.67H232V205.73c0-12.64,3.51-21.26,21.64-21.26h23.12V145.4a309.69,309.69,0,0,0-33.69-1.72c-33.34,0-56.17,20.35-56.17,57.72v32.21h-37.7v43.67h37.7v112Z"/><g class="cls-2"><rect class="cls-1" x="40.05" y="104.43" width="284.89" height="284.89" rx="52"/></g></svg>