<svg id="Capa_1" data-name="Capa 1" xmlns="http://www.w3.org/2000/svg" xmlns:xlink="http://www.w3.org/1999/xlink" viewBox="0 0 426 533"><defs><style>.cls-1,.cls-2{fill:#fff;}.cls-2{clip-path:url(#clip-path);}.cls-3{clip-path:url(#clip-path-2);}</style><clipPath id="clip-path"><path class="cls-1" d="M106.68,229.64h45.61V376.25H106.68Zm22.81-72.89a26.42,26.42,0,1,1-26.43,26.41,26.42,26.42,0,0,1,26.43-26.41"/></clipPath><clipPath id="clip-path-2"><path class="cls-2" d="M180.89,229.64h43.68v20h.62c6.08-11.53,20.95-23.68,43.12-23.68,46.1,0,54.63,30.35,54.63,69.85v80.41H277.42V305c0-17-.33-38.88-23.69-38.88-23.71,0-27.33,18.52-27.33,37.65v72.52H180.89Z"/></clipPath></defs><path class="cls-1" d="M106.68,229.64h45.61V376.25H106.68Zm22.81-72.89a26.42,26.42,0,1,1-26.43,26.41,26.42,26.42,0,0,1,26.43-26.41"/><path class="cls-1" d="M180.89,229.64h43.68v20h.62c6.08-11.53,20.95-23.68,43.12-23.68,46.1,0,54.63,30.35,54.63,69.85v80.41H277.42V305c0-17-.33-38.88-23.69-38.88-23.71,0-27.33,18.52-27.33,37.65v72.52H180.89Z"/><g class="cls-3"><rect class="cls-1" x="51.1" y="99.89" width="325.4" height="325.4" rx="59.39"/></g></svg>