<svg width="627" height="201" viewBox="0 0 627 201" fill="none" xmlns="http://www.w3.org/2000/svg">
<path d="M120.39 129.51C122.18 129.45 123.81 131.34 124.55 132.16C130.89 139.33 136.44 148.22 143.46 154.72C145.34 156.45 162.7 172 165.19 166.37C168.29 159.32 156.99 143.75 153.74 137.85C148.51 128.31 142.25 120.35 134.95 112.28C131.73 108.71 128.78 105.8 130.06 101.15C130.66 98.96 133.6 97.34 135.82 97.15C145.93 96.26 154.91 91.59 164.31 85.76C179.09 76.6 192.2 60.75 198.03 44.4C202.9 30.77 190.33 35.78 183.61 42.13C174.77 50.48 165.65 58.6 158.08 68.06C146.14 82.96 116.75 83.59 119.29 59.19C122.07 32.45 150.52 10.13 174.85 2.1C195.58 -4.74 228.16 6.93 226.85 32.52C225.1 66.7 199.2 103.11 165.02 109.03C160.63 109.79 159.68 109.48 159.42 109.68C159.11 109.91 160.01 110.79 163.73 114.62C169.13 120.18 172.85 125.1 176.8 131.71C184.51 144.61 188.71 161.43 188.96 176.63C189.2 191.8 172.27 190.78 160.29 185.7C140.58 177.34 126.82 151.22 119.13 132.42C118.82 131.58 118.61 129.56 120.39 129.51Z" fill="black"/>
<path d="M106.65 129.56C104.86 129.5 103.22 131.38 102.49 132.21C96.15 139.37 90.73 148.22 83.71 154.71C81.83 156.44 64.47 171.99 61.99 166.36C58.89 159.31 70.83 141.57 73.43 137.84C79.64 128.91 84.93 120.34 92.22 112.27C95.44 108.7 98.39 105.79 97.11 101.14C96.5 98.95 93.57 97.33 91.35 97.14C81.24 96.25 72.26 91.58 62.85 85.75C48.08 76.59 34.96 60.74 29.13 44.39C24.26 30.76 36.83 35.77 43.55 42.12C52.39 50.47 61.5 58.59 69.09 68.05C81.02 82.95 110.4 83.58 107.87 59.18C105.1 32.44 76.64 10.12 52.32 2.08999C31.59 -4.75001 -0.939963 6.91999 0.370037 32.51C2.12004 66.69 27.95 102.02 62.14 107.94C66.53 108.7 67.48 108.39 67.74 108.59C68.04 108.82 67.14 109.7 63.42 113.53C58.03 119.09 54.3 125.09 50.35 131.7C42.65 144.6 38.76 161.42 38.53 176.62C38.29 191.79 54.9 190.77 66.87 185.69C86.57 177.33 100.2 151.26 107.89 132.47C108.23 131.63 108.43 129.62 106.65 129.56Z" fill="black"/>
<path d="M122.14 132.74C130.39 154.4 159.94 200.64 183.69 183.06C192.68 176.41 175.59 125.26 149.97 106.81C164.4 109.9 181.31 101.57 192.23 91.54C212.86 72.58 239.34 26.05 212.68 9.27C165.94 -20.16 118.12 44.34 122.24 66.93C124.01 76.63 140.63 85.04 155.34 66.86C168.06 51.15 193.03 26.05 200.56 33.58C210.08 43.1 177.19 96.12 138.24 98.72C138.24 98.72 126.78 100.64 137.37 111.7C153.18 128.2 171.79 164.09 167.68 168.62C159.02 178.13 122.14 132.74 122.14 132.74Z" fill="#231F20"/>
<path d="M123.03 133.08C131.24 154.63 160.62 200.65 184.25 183.16C193.22 176.53 176.24 125.67 150.72 107.29C165.08 110.36 181.91 102.07 192.77 92.09C213.29 73.23 239.64 26.94 213.12 10.24C166.61 -19.05 119.02 45.12 123.12 67.59C124.88 77.24 141.41 85.61 156.06 67.52C169.04 51.49 193.25 26.6 201.06 34.41C210.54 43.89 177.81 96.64 139.05 99.23C139.05 99.23 127.65 101.14 138.18 112.15C153.91 128.57 172.42 164.27 168.33 168.78C159.72 178.25 123.03 133.08 123.03 133.08Z" fill="url(#paint0_linear)"/>
<path d="M123.92 133.42C132.09 154.86 161.29 200.66 184.8 183.26C193.74 176.64 176.87 126.08 151.46 107.78C165.75 110.84 182.49 102.58 193.3 92.65C213.72 73.89 239.94 27.83 213.55 11.22C167.28 -17.92 119.92 45.9 124 68.26C125.75 77.87 142.2 86.19 156.77 68.19C170.01 51.84 193.46 27.16 201.56 35.26C210.99 44.69 178.42 97.19 139.86 99.76C139.86 99.76 128.52 101.66 139 112.61C154.65 128.95 173.07 164.47 169 168.95C160.41 178.38 123.92 133.42 123.92 133.42Z" fill="url(#paint1_linear)"/>
<path d="M124.8 133.76C132.93 155.09 161.96 200.67 185.35 183.36C194.27 176.76 177.51 126.49 152.2 108.27C166.42 111.31 183.08 103.09 193.83 93.21C214.14 74.54 240.23 28.73 213.98 12.2C167.94 -16.79 120.81 46.69 124.87 68.93C126.61 78.49 142.98 86.77 157.47 68.86C170.97 52.19 193.66 27.73 202.04 36.11C211.42 45.49 179.02 97.73 140.66 100.29C140.66 100.29 129.37 102.18 139.8 113.08C155.37 129.34 173.7 164.67 169.65 169.13C161.11 178.51 124.8 133.76 124.8 133.76Z" fill="url(#paint2_linear)"/>
<path d="M125.69 134.11C133.78 155.34 162.63 200.7 185.9 183.46C194.8 176.88 178.14 126.91 152.94 108.75C167.09 111.78 183.66 103.59 194.36 93.76C214.57 75.19 240.52 29.61 214.41 13.17C168.6 -15.68 121.7 47.46 125.74 69.59C127.47 79.1 143.76 87.34 158.17 69.52C171.93 52.53 193.86 28.28 202.53 36.94C211.86 46.27 179.63 98.25 141.46 100.8C141.46 100.8 130.23 102.69 140.61 113.52C156.1 129.69 174.33 164.84 170.3 169.29C161.81 178.63 125.69 134.11 125.69 134.11Z" fill="url(#paint3_linear)"/>
<path d="M126.57 134.45C134.61 155.57 163.29 200.71 186.45 183.56C195.32 176.99 178.78 127.32 153.68 109.24C167.75 112.25 184.24 104.11 194.89 94.32C214.99 75.85 240.81 30.5 214.83 14.15C169.25 -14.55 122.59 48.24 126.61 70.26C128.33 79.72 144.53 87.92 158.88 70.19C172.9 52.87 194.07 28.84 203.02 37.79C212.31 47.08 180.24 98.79 142.26 101.33C142.26 101.33 131.08 103.21 141.41 113.99C156.82 130.08 174.96 165.05 170.95 169.47C162.51 178.76 126.57 134.45 126.57 134.45Z" fill="url(#paint4_linear)"/>
<path d="M127.46 134.79C135.46 155.8 163.97 200.72 187 183.66C195.85 177.11 179.41 127.73 154.41 109.72C168.41 112.72 184.82 104.61 195.4 94.88C215.4 76.51 241.08 31.4 215.24 15.13C169.9 -13.42 123.46 49.03 127.46 70.93C129.17 80.35 145.29 88.5 159.56 70.87C173.84 53.23 194.25 29.41 203.48 38.65C212.72 47.89 180.82 99.35 143.03 101.87C143.03 101.87 131.91 103.74 142.19 114.46C157.52 130.47 175.57 165.25 171.58 169.65C163.21 178.88 127.46 134.79 127.46 134.79Z" fill="url(#paint5_linear)"/>
<path d="M104.9 132.79C96.6501 154.45 67.6601 200.63 43.9001 183.05C34.7701 176.3 51.4201 124.27 77.2101 105.72C62.7701 108.81 45.8501 101.56 34.9401 91.53C14.3701 72.63 -12.0799 25.99 14.4801 9.25999C61.2301 -20.17 109.05 44.33 104.93 66.92C103.17 76.62 86.5501 85.03 71.8301 66.85C59.1001 51.14 34.1301 26.04 26.6001 33.57C17.0701 43.09 49.9701 96.11 88.9301 98.71C88.9301 98.71 100.39 100.63 89.8001 111.69C74.0001 128.19 55.3801 164.08 59.5001 168.61C68.1501 178.13 104.9 132.79 104.9 132.79Z" fill="#231F20"/>
<path d="M104.02 133.13C95.8101 154.68 66.9801 200.64 43.3401 183.15C34.2601 176.43 50.8201 124.67 76.4701 106.21C62.1001 109.28 45.2701 102.07 34.4101 92.09C13.9401 73.29 -12.3799 26.88 14.0501 10.24C60.5701 -19.05 108.16 45.12 104.06 67.59C102.3 77.24 85.7701 85.61 71.1301 67.52C58.1401 51.49 33.9301 26.6 26.1201 34.41C16.6401 43.89 49.3801 96.64 88.1401 99.23C88.1401 99.23 99.5501 101.14 89.0001 112.15C73.2801 128.57 54.7601 164.27 58.8501 168.78C67.4601 178.25 104.02 133.13 104.02 133.13Z" fill="url(#paint6_linear)"/>
<path d="M103.13 133.48C94.96 154.92 66.29 200.67 42.77 183.26C33.73 176.57 50.21 125.07 75.73 106.7C61.44 109.76 44.68 102.58 33.88 92.65C13.52 73.94 -12.67 27.78 13.63 11.22C59.91 -17.92 107.27 45.9 103.2 68.26C101.45 77.87 85 86.19 70.43 68.19C57.19 51.83 33.74 27.16 25.64 35.26C16.21 44.69 48.78 97.19 87.35 99.76C87.35 99.76 98.7 101.66 88.21 112.61C72.57 128.95 54.14 164.47 58.21 168.95C66.76 178.38 103.13 133.48 103.13 133.48Z" fill="url(#paint7_linear)"/>
<path d="M102.24 133.82C94.12 155.15 65.6 200.68 42.2 183.36C33.21 176.71 49.59 125.47 74.98 107.19C60.76 110.23 44.09 103.09 33.34 93.21C13.09 74.6 -12.96 28.67 13.2 12.2C59.25 -16.79 106.38 46.69 102.32 68.93C100.58 78.49 84.21 86.77 69.71 68.86C56.21 52.18 33.52 27.72 25.13 36.11C15.75 45.49 48.15 97.73 86.52 100.29C86.52 100.29 97.81 102.18 87.37 113.08C71.81 129.34 53.47 164.67 57.52 169.13C66.06 178.51 102.24 133.82 102.24 133.82Z" fill="url(#paint8_linear)"/>
<path d="M101.36 134.16C93.2801 155.39 64.9201 200.69 41.64 183.46C32.69 176.84 48.9901 125.86 74.2501 107.67C60.1001 110.7 43.5201 103.59 32.8201 93.76C12.6701 75.25 -13.2499 29.56 12.7701 13.17C58.5801 -15.68 105.49 47.46 101.45 69.59C99.7101 79.1 83.4301 87.34 69.0101 69.52C55.2501 52.52 33.3201 28.28 24.6501 36.94C15.3201 46.27 47.5601 98.25 85.7301 100.8C85.7301 100.8 96.9601 102.69 86.5801 113.52C71.0901 129.69 52.85 164.84 56.88 169.29C65.37 178.63 101.36 134.16 101.36 134.16Z" fill="url(#paint9_linear)"/>
<path d="M100.47 134.5C92.43 155.62 64.23 200.7 41.07 183.56C32.17 176.97 48.37 126.26 73.51 108.16C59.43 111.17 42.94 104.1 32.29 94.32C12.24 75.9 -13.54 30.45 12.35 14.15C57.93 -14.55 104.6 48.24 100.59 70.26C98.86 79.72 82.66 87.92 68.31 70.19C54.29 52.87 33.12 28.84 24.16 37.79C14.88 47.08 46.95 98.79 84.93 101.33C84.93 101.33 96.1 103.21 85.77 113.99C70.36 130.08 52.21 165.05 56.22 169.47C64.67 178.76 100.47 134.5 100.47 134.5Z" fill="url(#paint10_linear)"/>
<path d="M99.5801 134.84C91.5801 155.85 63.5401 200.71 40.4901 183.66C31.6301 177.11 47.7501 126.65 72.7501 108.65C58.7401 111.65 42.3301 104.62 31.7501 94.88C11.8101 76.56 -13.8399 31.35 11.9101 15.13C57.2601 -13.42 103.7 49.03 99.7101 70.93C97.9901 80.35 81.8801 88.5 67.6001 70.87C53.3201 53.23 32.9101 29.41 23.6701 38.65C14.4401 47.89 46.3401 99.35 84.1301 101.87C84.1301 101.87 95.2401 103.74 84.9701 114.46C69.6401 130.47 51.5801 165.25 55.5701 169.65C63.9701 178.88 99.5801 134.84 99.5801 134.84Z" fill="url(#paint11_linear)"/>
<path d="M619.63 137.91C619.64 137.9 622.46 138.18 624.76 135.89C626.98 133.57 626.66 130.71 626.66 130.65V130.32C626.66 130.26 626.67 130.2 626.67 130.14V115.5C626.67 115.46 626.66 115.42 626.66 115.37C626.69 114.98 626.82 112.38 624.75 110.21C622.45 107.93 619.63 108.2 619.62 108.2H618.01C617.95 108.2 617.89 108.19 617.83 108.19H561.83V127.67H555.26L551.08 137.46H561.82V156.77H572.6V137.92H606.01L613.31 156.77H626.58L618.03 137.91H619.63ZM572.61 119.03H612.43C613.93 119.17 614.81 120.19 614.91 121.35V124.46L614.89 124.63C614.82 125.69 613.99 127.06 612.02 127.07H572.61V119.03Z" fill="white"/>
<path d="M537.5 118.99H486.29V108.2H544.04C544.05 108.2 546.87 107.93 549.17 110.21C551.39 112.54 551.07 115.4 551.07 115.45V127.67H556.44V137.44H551.07V149.53C551.07 149.59 551.39 152.45 549.17 154.77C546.87 157.05 544.05 156.78 544.04 156.78H486.29V146H537.5C539.16 145.96 540.11 144.86 540.21 143.63V137.97H497.11V127.07H540.21V121.35C540.11 120.13 539.15 119.03 537.5 118.99Z" fill="white"/>
<path d="M470.1 108.2V122.55C470.07 122.83 470.01 124.08 469.1 125.44C468.49 126.23 467.79 126.94 467.16 127.7L448.55 148.4L429.89 127.7C429.25 126.94 428.57 126.22 427.95 125.44C427.05 124.09 426.99 122.83 426.95 122.55V108.2H416.14V122.8C416.14 126.31 417.73 128.46 420.9 132.74C422.74 134.93 424.12 136.5 425.02 137.44L443.11 156.83H453.99L472.04 137.44C472.94 136.5 474.32 134.93 476.16 132.74C479.33 128.46 480.92 126.31 480.92 122.8V108.2H470.1Z" fill="white"/>
<path d="M359.54 118.95H410.78V108.17H353C352.99 108.17 350.17 107.9 347.87 110.18C345.65 112.51 345.97 115.37 345.97 115.42V127.64H340.6V137.4H345.97V149.5C345.97 149.56 345.65 152.42 347.87 154.74C350.18 157.02 352.99 156.75 353 156.75H410.78V145.97H359.54C357.88 145.93 356.93 144.83 356.83 143.6V137.94H399.88V127.04H356.83V121.32C356.93 120.09 357.88 118.99 359.54 118.95Z" fill="white"/>
<path d="M289.38 145.97C287.72 145.93 286.77 144.83 286.67 143.6V138.95H286.66V108.17H286.59V108.16H275.8V121.17H275.82V149.5C275.82 149.56 275.51 152.42 277.72 154.74C280.03 157.02 282.84 156.75 282.85 156.75H340.63V145.97H289.38Z" fill="white"/>
<path d="M216.46 121.34C216.56 120.11 217.51 119.01 219.17 118.97H270.41V108.18H212.63C212.62 108.18 209.8 107.91 207.5 110.2C205.28 112.52 205.6 115.38 205.6 115.44V149.51C205.6 149.57 205.28 152.43 207.5 154.75C209.8 157.03 212.61 156.76 212.63 156.76H270.41V145.98H219.17C217.51 145.94 216.56 144.84 216.46 143.61V121.34Z" fill="white"/>
<path d="M495.77 172.93V199.87L491.7 199.86V172.92L495.77 172.93Z" fill="white"/>
<path d="M507.91 172.87C510.37 172.54 513.24 172.29 516.38 172.29C522.07 172.29 526.44 173.44 529.14 175.7C531.92 177.95 533.51 181.19 533.51 185.66C533.51 190.17 531.92 193.86 529.09 196.41C526.18 198.99 521.11 200.28 515.15 200.28C512.28 200.28 509.96 200.2 507.91 199.95V172.87ZM511.91 197.25C512.91 197.42 514.37 197.42 515.92 197.42C524.39 197.46 529.31 193.26 529.31 185.8C529.35 179.2 524.94 175.14 516.55 175.14C514.5 175.14 512.96 175.3 511.91 175.51V197.25Z" fill="white"/>
<path d="M561.86 187.72H549.7V197.16H561.86V199.88H545.7V172.94H561.88V175.61H549.7V185.05H561.86V187.72Z" fill="white"/>
<path d="M581.32 191.76L578.13 199.87H574.03L584.79 172.93H588.88L599.5 199.87H595.48L592.21 191.76H581.32ZM591.39 189.09C591.39 189.09 587.24 177.31 586.79 175.71H586.65C586.24 177.31 582.14 189.09 582.14 189.09H591.39Z" fill="white"/>
<path d="M610.42 194.51C612.12 195.49 614.13 196.45 616.74 196.45C620.62 196.45 622.57 195.18 622.57 192.47C622.57 190.03 621.6 188.58 617.63 187.25C612.83 185.68 610.41 183.41 610.41 179.71C610.41 175.59 613.4 172.9 619.11 172.9C622.08 172.9 624.36 173.29 626.63 174.26L625.3 176.95C623.76 176.17 621.64 175.61 618.98 175.61C614.97 175.61 614.48 177.5 614.48 179.31C614.48 181.78 615.5 183 619.55 184.41C624.52 186.18 626.63 188.3 626.63 192.18C626.63 196.27 623.43 199.89 616.5 199.89C613.66 199.89 610.73 198.78 609.16 197.84L610.42 194.51Z" fill="white"/>
<defs>
<linearGradient id="paint0_linear" x1="175.487" y1="11.7097" x2="166.598" y2="183.697" gradientUnits="userSpaceOnUse">
<stop offset="0.0714" stop-color="#484445"/>
<stop offset="0.511" stop-color="#3B3738"/>
<stop offset="1" stop-color="#413E3E"/>
</linearGradient>
<linearGradient id="paint1_linear" x1="176.097" y1="12.6791" x2="167.253" y2="183.796" gradientUnits="userSpaceOnUse">
<stop offset="0.0714" stop-color="#6C6A6A"/>
<stop offset="0.511" stop-color="#524F50"/>
<stop offset="1" stop-color="#5F5C5D"/>
</linearGradient>
<linearGradient id="paint2_linear" x1="176.708" y1="13.6485" x2="167.909" y2="183.895" gradientUnits="userSpaceOnUse">
<stop offset="0.0714" stop-color="#918F90"/>
<stop offset="0.511" stop-color="#6A6868"/>
<stop offset="1" stop-color="#7D7B7B"/>
</linearGradient>
<linearGradient id="paint3_linear" x1="177.319" y1="14.6179" x2="168.565" y2="183.993" gradientUnits="userSpaceOnUse">
<stop offset="0.0714" stop-color="#B6B4B5"/>
<stop offset="0.511" stop-color="#818080"/>
<stop offset="1" stop-color="#9A9999"/>
</linearGradient>
<linearGradient id="paint4_linear" x1="177.929" y1="15.5873" x2="169.221" y2="184.092" gradientUnits="userSpaceOnUse">
<stop offset="0.0714" stop-color="#DADADA"/>
<stop offset="0.511" stop-color="#999898"/>
<stop offset="1" stop-color="#B8B8B8"/>
</linearGradient>
<linearGradient id="paint5_linear" x1="178.54" y1="16.5567" x2="169.876" y2="184.191" gradientUnits="userSpaceOnUse">
<stop offset="0.0714" stop-color="white"/>
<stop offset="0.511" stop-color="#969696"/>
<stop offset="1" stop-color="#C7C7C7"/>
</linearGradient>
<linearGradient id="paint6_linear" x1="55.8316" y1="13.4981" x2="42.6783" y2="183.172" gradientUnits="userSpaceOnUse">
<stop offset="0.0714" stop-color="#3E3E2E"/>
<stop offset="0.511" stop-color="#343525"/>
<stop offset="1" stop-color="#3D3E26"/>
</linearGradient>
<linearGradient id="paint7_linear" x1="54.0436" y1="15.1352" x2="28.4174" y2="180.396" gradientUnits="userSpaceOnUse">
<stop offset="0.0714" stop-color="#595E3B"/>
<stop offset="0.511" stop-color="#454B2A"/>
<stop offset="1" stop-color="#585D2B"/>
</linearGradient>
<linearGradient id="paint8_linear" x1="575.873" y1="-532.726" x2="575.873" y2="-532.726" gradientUnits="userSpaceOnUse">
<stop offset="0.0714" stop-color="#747D49"/>
<stop offset="0.511" stop-color="#57612F"/>
<stop offset="1" stop-color="#727C31"/>
</linearGradient>
<linearGradient id="paint9_linear" x1="51.1768" y1="12.7913" x2="77.2119" y2="180.688" gradientUnits="userSpaceOnUse">
<stop offset="0.0714" stop-color="#8E9C56"/>
<stop offset="0.511" stop-color="#687634"/>
<stop offset="1" stop-color="#8C9A37"/>
</linearGradient>
<linearGradient id="paint10_linear" x1="49.8387" y1="15.1715" x2="62.895" y2="183.595" gradientUnits="userSpaceOnUse">
<stop offset="0.0714" stop-color="#A9BC63"/>
<stop offset="0.511" stop-color="#798C39"/>
<stop offset="1" stop-color="#A7B93C"/>
</linearGradient>
<linearGradient id="paint11_linear" x1="48.6669" y1="16.5561" x2="57.3316" y2="184.208" gradientUnits="userSpaceOnUse">
<stop offset="0.0714" stop-color="#C4DB71"/>
<stop offset="0.511" stop-color="#8AA23E"/>
<stop offset="1" stop-color="#C1D842"/>
</linearGradient>
</defs>
</svg>
