<svg width="156" height="118" viewBox="0 0 156 118" fill="none" xmlns="http://www.w3.org/2000/svg">
<path d="M80.7542 48.3312C81.4096 48.3104 82.0114 49.0016 82.2795 49.3055C84.6093 51.9361 86.6471 55.2044 89.2242 57.5878C89.9153 58.2253 96.2909 63.9336 97.2026 61.863C98.3407 59.274 94.1906 53.5598 92.9989 51.388C91.0773 47.8873 88.7773 44.9617 86.1019 41.9974C84.9192 40.6865 83.8347 39.6169 84.3084 37.9128C84.5289 37.1084 85.6103 36.5155 86.4237 36.444C90.1358 36.1193 93.4309 34.4033 96.8838 32.2612C102.309 28.9006 107.126 23.0791 109.269 17.076C111.056 12.0708 106.441 13.912 103.974 16.2418C100.727 19.3074 97.3784 22.2867 94.5987 25.7605C90.2133 31.2304 79.4254 31.4627 80.3579 22.5012C81.3768 12.6816 91.825 4.48863 100.757 1.53918C108.369 -0.97233 120.336 3.31183 119.854 12.7084C119.21 25.257 109.701 38.6278 97.149 40.8027C95.5372 41.0827 95.1886 40.9665 95.0933 41.041C94.9801 41.1244 95.3108 41.4462 96.6753 42.8554C98.6594 44.8962 100.024 46.7046 101.475 49.1297C104.308 53.8667 105.848 60.0427 105.938 65.6258C106.027 71.194 99.8094 70.8186 95.4121 68.9536C88.1784 65.885 83.1227 56.2948 80.3013 49.3919C80.1732 49.0939 80.0957 48.3551 80.7542 48.3312Z" fill="black"/>
<path d="M75.7045 48.3521C75.049 48.3312 74.4472 49.0224 74.1791 49.3263C71.8493 51.957 69.8622 55.2044 67.2821 57.5878C66.5939 58.2253 60.2183 63.9336 59.3067 61.863C58.1656 59.274 62.5511 52.7584 63.5074 51.388C65.7895 48.1108 67.729 44.9617 70.4074 41.9974C71.5901 40.6865 72.6746 39.6169 72.2038 37.9128C71.9804 37.1084 70.9019 36.5155 70.0886 36.444C66.3735 36.1193 63.0784 34.4033 59.6255 32.2612C54.2032 28.9006 49.3858 23.0791 47.2437 17.076C45.4562 12.0708 50.068 13.912 52.5378 16.2418C55.7852 19.3074 59.1309 22.2867 61.9135 25.7605C66.296 31.2304 77.0839 31.4627 76.1543 22.5012C75.1354 12.6816 64.6902 4.48863 55.7554 1.53918C48.1464 -0.97233 36.1996 3.31183 36.6793 12.7084C37.3228 25.257 46.8058 38.2316 59.3603 40.4064C60.9721 40.6865 61.3207 40.5703 61.419 40.6448C61.5292 40.7282 61.1985 41.05 59.834 42.4592C57.8528 44.4999 56.4853 46.7016 55.0374 49.1297C52.2071 53.8667 50.783 60.0427 50.6967 65.6258C50.6073 71.194 56.7058 70.8186 61.1032 68.9536C68.3368 65.885 73.3419 56.3127 76.1633 49.4097C76.2854 49.1118 76.3629 48.373 75.7045 48.3521Z" fill="black"/>
<path d="M81.3946 49.52C84.4245 57.4717 95.275 74.4504 103.995 67.9973C107.299 65.5573 101.022 46.7732 91.6135 39.9984C96.9106 41.1335 103.122 38.0738 107.132 34.3914C114.709 27.4289 124.433 10.3459 114.643 4.18185C97.4766 -6.62686 79.9199 17.0611 81.4334 25.3494C82.0829 28.9126 88.1844 31.9961 93.5887 25.3226C98.2572 19.5548 107.427 10.337 110.192 13.1017C113.69 16.5964 101.609 36.0658 87.3085 37.0221C87.3085 37.0221 83.1018 37.7282 86.9897 41.7889C92.7933 47.8487 99.6276 61.0259 98.1172 62.6913C94.9353 66.186 81.3946 49.52 81.3946 49.52Z" fill="#231F20"/>
<path d="M81.7194 49.6449C84.7344 57.5577 95.5222 74.4531 104.198 68.0328C107.493 65.5987 101.254 46.9248 91.8846 40.1768C97.1548 41.3059 103.337 38.2612 107.326 34.5967C114.863 27.6699 124.54 10.6733 114.801 4.54202C97.7209 -6.21306 80.2476 17.3468 81.7551 25.5964C82.4016 29.1417 88.4703 32.2103 93.8479 25.5696C98.6117 19.6826 107.502 10.5452 110.374 13.4142C113.854 16.894 101.835 36.2651 87.6034 37.2154C87.6034 37.2154 83.4175 37.9185 87.2846 41.9584C93.0584 47.9884 99.857 61.0971 98.3555 62.7535C95.1915 66.2303 81.7194 49.6449 81.7194 49.6449Z" fill="url(#paint0_linear)"/>
<path d="M82.0472 49.7704C85.0473 57.6445 95.7696 74.4594 104.403 68.0689C107.69 65.6408 101.493 47.0741 92.1617 40.353C97.4082 41.4761 103.557 38.4462 107.526 34.7996C115.024 27.9086 124.65 10.9984 114.962 4.8999C97.9683 -5.79858 80.5784 17.6332 82.077 25.841C82.7205 29.3685 88.7594 32.4222 94.1102 25.8142C98.9693 19.8081 107.582 10.7511 110.556 13.7244C114.018 17.1863 102.059 36.4621 87.9014 37.4095C87.9014 37.4095 83.7364 38.1096 87.5856 42.1286C93.3296 48.1288 100.095 61.169 98.5999 62.8165C95.4478 66.2784 82.0472 49.7704 82.0472 49.7704Z" fill="url(#paint1_linear)"/>
<path d="M82.3719 49.896C85.3572 57.7284 96.0139 74.4658 104.603 68.1051C107.88 65.683 101.722 47.2266 92.4299 40.5322C97.6495 41.6494 103.769 38.6314 107.716 35.0027C115.176 28.1474 124.755 11.3266 115.117 5.25788C98.2096 -5.38697 80.9032 17.9197 82.3958 26.0858C83.0363 29.5954 89.0455 32.6342 94.3664 26.062C99.3209 19.9396 107.654 10.9572 110.734 14.0377C114.178 17.4817 102.282 36.6621 88.1934 37.6036C88.1934 37.6036 84.0493 38.2977 87.8776 42.2989C93.5948 48.2693 100.325 61.2409 98.8353 62.8825C95.7041 66.3235 82.3719 49.896 82.3719 49.896Z" fill="url(#paint2_linear)"/>
<path d="M82.6966 50.0208C85.6669 57.8145 96.2611 74.4685 104.806 68.1436C108.074 65.7274 101.957 47.3782 92.7009 40.7137C97.8938 41.8249 103.98 38.8218 107.91 35.211C115.331 28.3915 124.862 11.657 115.272 5.62109C98.4509 -4.97311 81.2308 18.2084 82.7145 26.3358C83.3521 29.8275 89.3284 32.8514 94.6226 26.312C99.6754 20.0704 107.728 11.1685 110.91 14.3503C114.339 17.7764 102.5 36.8615 88.4853 37.8C88.4853 37.8 84.362 38.4911 88.1725 42.4714C93.8599 48.409 100.554 61.3181 99.0736 62.9478C95.9602 66.3709 82.6966 50.0208 82.6966 50.0208Z" fill="url(#paint3_linear)"/>
<path d="M83.0214 50.149C85.9738 57.904 96.5055 74.4776 105.008 68.1824C108.268 65.7722 102.19 47.5303 92.9721 40.8925C98.1411 41.9978 104.195 39.0066 108.104 35.4166C115.486 28.6329 124.966 11.9848 115.43 5.98166C98.6922 -4.55594 81.5556 18.5005 83.0333 26.5832C83.6649 30.057 89.6145 33.066 94.8818 26.5593C100.03 20.2016 107.803 11.3771 111.092 14.6632C114.503 18.0744 102.726 37.0642 88.7803 37.9937C88.7803 37.9937 84.6779 38.6819 88.4675 42.6413C94.125 48.5492 100.787 61.3897 99.3119 63.0104C96.2165 66.4157 83.0214 50.149 83.0214 50.149Z" fill="url(#paint4_linear)"/>
<path d="M83.349 50.2738C86.2865 57.987 96.7526 74.4801 105.214 68.2178C108.464 65.8105 102.425 47.6818 93.249 41.0709C98.3912 42.1702 104.415 39.1939 108.303 35.6218C115.647 28.8738 125.079 12.3122 115.59 6.33877C98.9364 -4.14818 81.8862 18.7861 83.3549 26.8271C83.9836 30.283 89.9004 33.2771 95.1408 26.8032C100.384 20.3263 107.88 11.5823 111.27 14.9726C114.664 18.366 102.946 37.2604 89.0751 38.1869C89.0751 38.1869 84.9906 38.8722 88.7653 42.8107C94.3931 48.6888 101.022 61.4608 99.5531 63.0756C96.4726 66.463 83.349 50.2738 83.349 50.2738Z" fill="url(#paint5_linear)"/>
<path d="M75.0639 49.538C72.037 57.4896 61.3892 74.4475 52.6689 67.9944C49.3172 65.5157 55.4307 46.4127 64.8987 39.5992C59.5957 40.7343 53.3839 38.0708 49.3768 34.3885C41.8215 27.4468 32.1091 10.3221 41.8632 4.17892C59.0296 -6.62979 76.5893 17.0582 75.0758 25.3465C74.4293 28.9097 68.3278 31.9932 62.9235 25.3197C58.252 19.5489 49.0819 10.334 46.3171 13.0988C42.8195 16.5934 54.8974 36.0628 69.2008 37.0192C69.2008 37.0192 73.4104 37.7253 69.5195 41.786C63.7189 47.8458 56.8845 61.023 58.395 62.6884C61.5709 66.186 75.0639 49.538 75.0639 49.538Z" fill="#231F20"/>
<path d="M74.7391 49.6628C71.727 57.5757 61.1388 74.4531 52.4602 68.0298C49.1265 65.563 55.2071 46.5584 64.6245 39.7776C59.3483 40.9068 53.1663 38.2582 49.1801 34.5937C41.6635 27.6878 32.0017 10.6495 41.7052 4.53909C58.7852 -6.21599 76.2585 17.3439 74.754 25.5934C74.1075 29.1387 68.0387 32.2074 62.6612 25.5666C57.8944 19.6796 49.0043 10.5423 46.1353 13.4113C42.6555 16.8911 54.6738 36.2621 68.9057 37.2125C68.9057 37.2125 73.0945 37.9156 69.2215 41.9555C63.4477 47.9855 56.6491 61.0942 58.1506 62.7506C61.3176 66.2304 74.7391 49.6628 74.7391 49.6628Z" fill="url(#paint6_linear)"/>
<path d="M74.4145 49.7913C71.4174 57.6654 60.8887 74.4594 52.2519 68.0689C48.936 65.614 54.9809 46.7048 64.3536 39.9568C59.1042 41.0799 52.955 38.4463 48.9866 34.7967C41.5087 27.9266 31.8947 10.9776 41.5504 4.89697C58.5441 -5.80151 75.9339 17.6303 74.4383 25.8381C73.7948 29.3655 67.7559 32.4193 62.4052 25.8113C57.543 19.8111 48.933 10.7512 45.9567 13.7275C42.4948 17.1893 54.4535 36.4651 68.6139 37.4125C68.6139 37.4125 72.7819 38.1126 68.9297 42.1316C63.1857 48.1318 56.4198 61.172 57.9154 62.8195C61.0615 66.2784 74.4145 49.7913 74.4145 49.7913Z" fill="url(#paint7_linear)"/>
<path d="M74.0897 49.9168C71.1075 57.7492 60.6354 74.4658 52.0433 68.108C48.7423 65.6651 54.7574 46.8511 64.0794 40.1389C58.8568 41.2561 52.7374 38.6343 48.7899 35.0056C41.3507 28.1712 31.7874 11.3087 41.3895 5.26081C58.2967 -5.38404 75.6032 17.9226 74.1135 26.0887C73.473 29.5983 67.4639 32.6371 62.1429 26.0649C57.1854 19.9425 48.8525 10.9601 45.7749 14.0407C42.3309 17.4847 54.2271 36.6651 68.3189 37.6065C68.3189 37.6065 72.463 38.3007 68.6317 42.3018C62.9175 48.2722 56.1844 61.2439 57.6711 62.8854C60.8052 66.3235 74.0897 49.9168 74.0897 49.9168Z" fill="url(#paint8_linear)"/>
<path d="M73.7648 50.0413C70.7975 57.8351 60.385 74.4682 51.8375 68.1432C48.5544 65.7122 54.5367 46.9936 63.8111 40.3171C58.6153 41.4283 52.5287 38.8215 48.6021 35.2106C41.2016 28.412 31.6859 11.6358 41.2403 5.62075C58.0612 -4.97048 75.2842 18.211 73.8035 26.3355C73.166 29.8271 67.1896 32.8511 61.8925 26.3116C56.8397 20.0701 48.7868 11.1681 45.6049 14.3499C42.1788 17.7761 54.0154 36.8611 68.0327 37.7996C68.0327 37.7996 72.156 38.4908 68.3455 42.4711C62.6582 48.4087 55.9608 61.3178 57.4415 62.9474C60.5489 66.3706 73.7648 50.0413 73.7648 50.0413Z" fill="url(#paint9_linear)"/>
<path d="M73.4373 50.1669C70.4819 57.9219 60.129 74.4746 51.6262 68.1795C48.358 65.7603 54.3076 47.14 63.5373 40.4933C58.3683 41.5986 52.3115 39.0037 48.4057 35.4137C41.0439 28.6508 31.5759 11.9611 41.0827 5.97873C57.8201 -4.55887 74.9567 18.4975 73.482 26.5802C72.8474 30.054 66.9008 33.0631 61.6305 26.5564C56.4824 20.1987 48.7096 11.3741 45.4205 14.6603C42.0122 18.0715 53.7892 37.0612 67.735 37.9908C67.735 37.9908 71.8375 38.679 68.0449 42.6384C62.3873 48.5462 55.7227 61.3868 57.1945 63.0075C60.2929 66.4158 73.4373 50.1669 73.4373 50.1669Z" fill="url(#paint10_linear)"/>
<path d="M73.1125 50.2916C70.1719 58.0048 59.8786 74.4801 51.4176 68.2147C48.1672 65.8075 54.084 47.2825 63.2631 40.6716C58.1209 41.7709 52.0968 39.1909 48.2089 35.6188C40.8859 28.8916 31.4685 12.2883 40.9247 6.33574C57.5757 -4.14824 74.6259 18.783 73.1601 26.824C72.5285 30.28 66.6117 33.2741 61.3683 26.8002C56.1248 20.3233 48.632 11.5792 45.2386 14.9696C41.8482 18.363 53.5626 37.2574 67.44 38.1839C67.44 38.1839 71.5215 38.8691 67.7498 42.8077C62.122 48.6858 55.4902 61.4578 56.956 63.0725C60.0365 66.4629 73.1125 50.2916 73.1125 50.2916Z" fill="url(#paint11_linear)"/>
<path d="M80.7542 48.3518C81.4096 48.3309 82.0114 49.0221 82.2795 49.326C84.6093 51.9566 86.6471 55.2249 89.2242 57.6083C89.9153 58.2458 96.2909 63.9541 97.2026 61.8835C98.3407 59.2945 94.1906 53.5803 92.9989 51.4085C91.0773 47.9078 88.7773 44.9822 86.1019 42.0179C84.9192 40.707 83.8347 39.6375 84.3084 37.9333C84.5289 37.1259 85.6103 36.5331 86.4237 36.4646C90.1358 36.1398 93.4309 34.4238 96.8838 32.2817C102.309 28.9181 107.126 23.0996 109.269 17.0965C111.056 12.0943 106.441 13.9325 103.974 16.2623C100.727 19.3279 97.3784 22.3101 94.5987 25.781C90.2133 31.2509 79.4254 31.4833 80.3579 22.5217C81.3768 12.7021 91.825 4.50914 100.757 1.55968C108.369 -0.951822 120.336 3.33234 119.854 12.7289C119.21 25.2775 109.701 38.6483 97.149 40.8232C95.5372 41.1032 95.1886 40.9871 95.0933 41.0615C94.9801 41.145 95.3108 41.4667 96.6753 42.8759C98.6594 44.9167 100.024 46.7221 101.475 49.1502C104.308 53.8872 105.848 60.0632 105.938 65.6463C106.027 71.2145 99.8094 70.8391 95.4121 68.9741C88.1784 65.9055 83.1227 56.3153 80.3013 49.4124C80.1732 49.1144 80.0957 48.3726 80.7542 48.3518Z" fill="black"/>
<path d="M75.7045 48.3726C75.049 48.3518 74.4472 49.0429 74.1791 49.3468C71.8493 51.9775 69.8622 55.2249 67.2821 57.6083C66.5939 58.2458 60.2183 63.9541 59.3067 61.8835C58.1656 59.2945 62.5511 52.7789 63.5074 51.4085C65.7895 48.1313 67.729 44.9822 70.4074 42.0179C71.5901 40.707 72.6746 39.6375 72.2038 37.9333C71.9804 37.1259 70.9019 36.5331 70.0886 36.4646C66.3735 36.1398 63.0784 34.4238 59.6255 32.2817C54.2032 28.9181 49.3858 23.0996 47.2437 17.0965C45.4562 12.0943 50.068 13.9325 52.5378 16.2623C55.7852 19.3279 59.1309 22.3101 61.9135 25.781C66.296 31.2509 77.0839 31.4833 76.1543 22.5217C75.1354 12.7021 64.6902 4.50914 55.7554 1.55968C48.1464 -0.951822 36.1996 3.33234 36.6793 12.7289C37.3228 25.2775 46.8058 38.2521 59.3603 40.427C60.9721 40.707 61.3207 40.5908 61.419 40.6653C61.5292 40.7487 61.1985 41.0705 59.834 42.4797C57.8528 44.5204 56.4853 46.7221 55.0374 49.1502C52.2071 53.8872 50.783 60.0632 50.6967 65.6463C50.6073 71.2145 56.7058 70.8391 61.1032 68.9741C68.3368 65.9055 73.3419 56.3332 76.1633 49.4302C76.2854 49.1323 76.3629 48.3935 75.7045 48.3726Z" fill="black"/>
<path d="M81.3946 49.5377C84.4245 57.4893 95.275 74.468 103.995 68.012C107.299 65.572 101.022 46.7878 91.6135 40.013C96.9106 41.1481 103.122 38.0914 107.132 34.4061C114.709 27.4436 124.433 10.3605 114.643 4.19648C97.4766 -6.61223 79.9199 17.0758 81.4334 25.367C82.0829 28.9302 88.1844 32.0137 93.5887 25.3402C98.2572 19.5724 107.427 10.3546 110.192 13.1193C113.69 16.614 101.609 36.0834 87.3085 37.0397C87.3085 37.0397 83.1018 37.7458 86.9897 41.8065C92.7933 47.8663 99.6276 61.0435 98.1172 62.7089C94.9353 66.2066 81.3946 49.5377 81.3946 49.5377Z" fill="#231F20"/>
<path d="M81.7194 49.6654C84.7344 57.5782 95.5222 74.4735 104.198 68.0533C107.493 65.6192 101.254 46.9453 91.8846 40.1973C97.1548 41.3264 103.337 38.2816 107.326 34.6172C114.863 27.6904 124.54 10.6938 114.801 4.56251C97.7209 -6.19257 80.2476 17.3673 81.7551 25.6198C82.4016 29.1651 88.4703 32.2338 93.8479 25.593C98.6117 19.706 107.502 10.5687 110.374 13.4377C113.854 16.9175 101.835 36.2885 87.6034 37.2389C87.6034 37.2389 83.4175 37.942 87.2846 41.9819C93.0584 48.0119 99.857 61.1206 98.3555 62.777C95.1915 66.2508 81.7194 49.6654 81.7194 49.6654Z" fill="url(#paint12_linear)"/>
<path d="M82.0472 49.7909C85.0473 57.662 95.7696 74.4799 104.403 68.0894C107.69 65.6613 101.493 47.0946 92.1617 40.3735C97.4082 41.4966 103.557 38.4667 107.526 34.8201C115.024 27.9291 124.65 11.0189 114.962 4.92041C97.9683 -5.77807 80.5784 17.6537 82.077 25.8615C82.7205 29.389 88.7594 32.4427 94.1102 25.8347C98.9693 19.8286 107.582 10.7716 110.556 13.7449C114.018 17.2068 102.059 36.4826 87.9014 37.43C87.9014 37.43 83.7364 38.1301 87.5856 42.1491C93.3296 48.1493 100.095 61.1895 98.5999 62.837C95.4478 66.2989 82.0472 49.7909 82.0472 49.7909Z" fill="url(#paint13_linear)"/>
<path d="M82.3719 49.9165C85.3572 57.7489 96.0139 74.4863 104.603 68.1256C107.88 65.7035 101.722 47.2471 92.4299 40.5527C97.6495 41.6699 103.769 38.6519 107.716 35.0232C115.176 28.168 124.755 11.3441 115.117 5.27839C98.2096 -5.36646 80.9032 17.9402 82.3958 26.1063C83.0363 29.6159 89.0455 32.6547 94.3664 26.0825C99.3209 19.9601 107.654 10.9777 110.734 14.0582C114.178 17.5022 102.282 36.6826 88.1934 37.6241C88.1934 37.6241 84.0493 38.3183 87.8776 42.3194C93.5948 48.2898 100.325 61.2614 98.8353 62.903C95.7041 66.344 82.3719 49.9165 82.3719 49.9165Z" fill="url(#paint14_linear)"/>
<path d="M82.6966 50.0413C85.6669 57.8351 96.2611 74.4891 104.806 68.1641C108.074 65.7479 101.957 47.3987 92.7009 40.7342C97.8938 41.8454 103.98 38.8423 107.91 35.2315C115.331 28.412 124.862 11.6776 115.272 5.6416C98.4509 -4.95261 81.2308 18.2289 82.7145 26.3563C83.3521 29.848 89.3284 32.8719 94.6226 26.3325C99.6754 20.091 107.728 11.189 110.91 14.3708C114.339 17.7969 102.5 36.882 88.4853 37.8205C88.4853 37.8205 84.362 38.5117 88.1725 42.4919C93.8599 48.4296 100.554 61.3386 99.0736 62.9683C95.9602 66.3915 82.6966 50.0413 82.6966 50.0413Z" fill="url(#paint15_linear)"/>
<path d="M83.0214 50.1666C85.9738 57.9216 96.5055 74.4952 105.008 68.2C108.268 65.7898 102.19 47.5479 92.9721 40.9101C98.1411 42.0154 104.195 39.0243 108.104 35.4343C115.486 28.6535 124.966 12.0025 115.43 5.99631C98.6922 -4.54129 81.5556 18.5151 83.0333 26.5978C83.6649 30.0716 89.6145 33.0807 94.8818 26.574C100.03 20.2163 107.803 11.3917 111.092 14.6778C114.503 18.0891 102.726 37.0788 88.7803 38.0083C88.7803 38.0083 84.6779 38.6965 88.4675 42.656C94.125 48.5638 100.787 61.4044 99.3119 63.0251C96.2165 66.4363 83.0214 50.1666 83.0214 50.1666Z" fill="url(#paint16_linear)"/>
<path d="M83.3489 50.2912C86.2865 58.0045 96.7526 74.4976 105.214 68.2352C108.464 65.828 102.425 47.6993 93.249 41.0883C98.3912 42.1877 104.415 39.2114 108.303 35.6393C115.647 28.8943 125.079 12.3296 115.59 6.35625C98.9393 -4.12773 81.8891 18.8035 83.3579 26.8445C83.9865 30.3005 89.9033 33.2946 95.1438 26.8207C100.387 20.3438 107.883 11.5997 111.273 14.9901C114.667 18.3835 102.949 37.2779 89.078 38.2044C89.078 38.2044 84.9935 38.8896 88.7682 42.8282C94.396 48.7063 101.025 61.4783 99.556 63.093C96.4725 66.4834 83.3489 50.2912 83.3489 50.2912Z" fill="url(#paint17_linear)"/>
<path d="M75.0639 49.5585C72.037 57.5101 61.3892 74.468 52.6689 68.0149C49.3172 65.5362 55.4307 46.4332 64.8987 39.6197C59.5957 40.7548 53.3839 38.0913 49.3768 34.409C41.8215 27.4673 32.1091 10.3426 41.8632 4.19941C59.0296 -6.6093 76.5893 17.0787 75.0758 25.3699C74.4293 28.9331 68.3278 32.0166 62.9235 25.3431C58.252 19.5723 49.0819 10.3575 46.3171 13.1223C42.8195 16.6169 54.8974 36.0863 69.2008 37.0426C69.2008 37.0426 73.4104 37.7487 69.5195 41.8094C63.7189 47.8692 56.8845 61.0464 58.395 62.7118C61.5709 66.2065 75.0639 49.5585 75.0639 49.5585Z" fill="#231F20"/>
<path d="M74.7391 49.6833C71.727 57.5962 61.1388 74.4736 52.4602 68.0503C49.1265 65.5835 55.2071 46.5789 64.6245 39.7981C59.3483 40.9273 53.1663 38.2787 49.1801 34.6142C41.6635 27.7083 32.0017 10.67 41.7052 4.55958C58.7852 -6.1955 76.2585 17.3644 74.754 25.6169C74.1075 29.1622 68.0387 32.2308 62.6612 25.5901C57.8944 19.7031 49.0043 10.5657 46.1353 13.4348C42.6555 16.9145 54.6738 36.2856 68.9057 37.236C68.9057 37.236 73.0945 37.9391 69.2215 41.9789C63.4477 48.0089 56.6491 61.1176 58.1506 62.7741C61.3176 66.2509 74.7391 49.6833 74.7391 49.6833Z" fill="url(#paint18_linear)"/>
<path d="M74.4145 49.8088C71.4174 57.68 60.8887 74.477 52.2519 68.0865C48.936 65.6316 54.9809 46.7223 64.3536 39.9773C59.1042 41.1004 52.955 38.4668 48.9866 34.8172C41.5087 27.9471 31.8947 10.9951 41.5504 4.91748C58.5441 -5.781 75.9339 17.6508 74.4383 25.8586C73.7948 29.386 67.7559 32.4398 62.4052 25.8318C57.543 19.8256 48.933 10.7657 45.9567 13.742C42.4948 17.2039 54.4535 36.4796 68.6139 37.427C68.6139 37.427 72.7819 38.1272 68.9297 42.1462C63.1857 48.1464 56.4198 61.1865 57.9154 62.8341C61.0615 66.2989 74.4145 49.8088 74.4145 49.8088Z" fill="url(#paint19_linear)"/>
<path d="M74.0897 49.9373C71.1075 57.7697 60.6354 74.4863 52.0433 68.1286C48.7423 65.6856 54.7574 46.8716 64.0794 40.1594C58.8568 41.2766 52.7374 38.6549 48.7899 35.0261C41.3507 28.1917 31.7874 11.3292 41.3895 5.28132C58.2967 -5.36353 75.6032 17.9431 74.1135 26.1092C73.473 29.6188 67.4639 32.6576 62.1429 26.0854C57.1854 19.9631 48.8525 10.9806 45.7749 14.0612C42.3309 17.5052 54.2271 36.6856 68.3189 37.627C68.3189 37.627 72.463 38.3212 68.6317 42.3223C62.9175 48.2927 56.1844 61.2644 57.6711 62.9059C60.8052 66.344 74.0897 49.9373 74.0897 49.9373Z" fill="url(#paint20_linear)"/>
<path d="M73.7648 50.0618C70.7975 57.8556 60.385 74.4917 51.8375 68.1638C48.5544 65.7327 54.5367 47.0141 63.8111 40.3376C58.6153 41.4488 52.5287 38.842 48.6021 35.2311C41.2016 28.4325 31.6859 11.6564 41.2403 5.64126C58.0612 -4.94997 75.2842 18.2316 73.8035 26.356C73.166 29.8476 67.1896 32.8716 61.8925 26.3321C56.8397 20.0906 48.7868 11.1886 45.6049 14.3705C42.1788 17.7966 54.0154 36.8816 68.0327 37.8201C68.0327 37.8201 72.156 38.5113 68.3455 42.4916C62.6582 48.4292 55.9608 61.3383 57.4415 62.9679C60.5489 66.3911 73.7648 50.0618 73.7648 50.0618Z" fill="url(#paint21_linear)"/>
<path d="M73.4373 50.1875C70.4819 57.9425 60.129 74.4952 51.6262 68.2C48.358 65.7809 54.3076 47.1606 63.5373 40.5139C58.3683 41.6192 52.3115 39.0243 48.4057 35.4343C41.0439 28.6714 31.5759 11.9816 41.0827 5.99631C57.8201 -4.54129 74.9567 18.5151 73.482 26.5978C72.8474 30.0716 66.9008 33.0807 61.6305 26.574C56.4824 20.2163 48.7096 11.3917 45.4205 14.6778C42.0122 18.0891 53.7892 37.0788 67.735 38.0083C67.735 38.0083 71.8375 38.6965 68.0449 42.656C62.3873 48.5638 55.7227 61.4044 57.1945 63.0251C60.2929 66.4363 73.4373 50.1875 73.4373 50.1875Z" fill="url(#paint22_linear)"/>
<path d="M73.1125 50.3121C70.1719 58.0253 59.8786 74.5006 51.4176 68.2382C48.1672 65.831 54.084 47.306 63.2631 40.6951C58.1209 41.7944 52.0968 39.2144 48.2089 35.6393C40.8859 28.9121 31.4685 12.3088 40.9247 6.35625C57.5757 -4.12773 74.6259 18.8035 73.1601 26.8445C72.5285 30.3005 66.6117 33.2946 61.3683 26.8207C56.1248 20.3438 48.632 11.5997 45.2386 14.9901C41.8482 18.3835 53.5626 37.2779 67.44 38.2044C67.44 38.2044 71.5215 38.8896 67.7498 42.8282C62.122 48.7063 55.4902 61.4783 56.956 63.093C60.0365 66.4834 73.1125 50.3121 73.1125 50.3121Z" fill="url(#paint23_linear)"/>
<path d="M53.9797 107.871V117.762L52.4841 117.759V107.868L53.9797 107.871Z" fill="white"/>
<path d="M58.4366 107.847C59.3393 107.725 60.3939 107.636 61.5469 107.636C63.6354 107.636 65.2412 108.059 66.2303 108.887C67.2492 109.715 67.8361 110.904 67.8361 112.546C67.8361 114.202 67.2522 115.558 66.2124 116.49C65.1429 117.44 63.2838 117.911 61.0941 117.911C60.0394 117.911 59.1873 117.881 58.4336 117.792V107.847H58.4366ZM59.9053 116.797C60.2748 116.859 60.808 116.86 61.3771 116.86C64.4874 116.874 66.2958 115.334 66.2958 112.593C66.3137 110.168 64.69 108.678 61.6095 108.678C60.8587 108.678 60.2897 108.738 59.9053 108.813V116.797Z" fill="white"/>
<path d="M78.2457 113.296H73.7828V116.761H78.2487V117.759H72.311V107.871H78.2517V108.851H73.7828V112.316H78.2457V113.296Z" fill="white"/>
<path d="M85.3929 114.783L84.2221 117.762H82.7175L86.668 107.871H88.1696L92.0694 117.762H90.5917L89.3881 114.783H85.3929ZM89.0901 113.803C89.0901 113.803 87.5677 109.477 87.4009 108.89H87.3503C87.2013 109.477 85.6968 113.803 85.6968 113.803H89.0901Z" fill="white"/>
<path d="M96.0764 115.793C96.6991 116.153 97.4379 116.508 98.3973 116.508C99.8243 116.508 100.536 116.043 100.536 115.048C100.536 114.154 100.179 113.621 98.722 113.133C96.9613 112.558 96.0705 111.72 96.0705 110.365C96.0705 108.851 97.1668 107.865 99.2642 107.865C100.355 107.865 101.192 108.008 102.026 108.366L101.537 109.355C100.971 109.066 100.191 108.863 99.2166 108.863C97.7418 108.863 97.5631 109.557 97.5631 110.222C97.5631 111.13 97.9385 111.577 99.4251 112.096C101.251 112.745 102.023 113.523 102.023 114.95C102.023 116.451 100.846 117.78 98.3019 117.78C97.2592 117.78 96.1837 117.372 95.6057 117.029L96.0764 115.793Z" fill="white"/>
<path d="M152.971 91.036C152.977 91.033 154.008 91.1343 154.854 90.2971C155.667 89.4421 155.554 88.3934 155.554 88.3725V88.2504C155.554 88.2266 155.56 88.2057 155.56 88.1848V82.8103C155.56 82.7954 155.557 82.7805 155.557 82.7626C155.566 82.6166 155.614 81.6633 154.857 80.8678C154.011 80.0306 152.977 80.1319 152.974 80.129H152.384C152.361 80.129 152.34 80.126 152.319 80.126H131.756V87.2792H129.346L127.812 90.8751H131.756V97.9657H135.712V91.0449H147.981L150.662 97.9657H155.533L152.396 91.039H152.971V91.036ZM135.71 84.1063H150.332C150.883 84.1569 151.205 84.5323 151.24 84.9613V86.1023L151.234 86.1649C151.211 86.5552 150.904 87.0587 150.183 87.0587H135.712V84.1063H135.71Z" fill="white"/>
<path d="M122.815 84.088H104.013V80.1286H125.216C125.222 80.1286 126.253 80.0302 127.099 80.8674C127.913 81.7224 127.799 82.7712 127.799 82.792V87.2758H129.772V90.8658H127.799V95.3019C127.799 95.3227 127.916 96.3714 127.099 97.2265C126.253 98.0666 125.219 97.9653 125.216 97.9653H104.013V94.0059H122.815C123.423 93.991 123.775 93.5888 123.81 93.136V91.0594H107.985V87.0583H123.81V84.9579C123.772 84.508 123.423 84.1029 122.815 84.088Z" fill="white"/>
<path d="M98.0696 80.1289V85.3962C98.0577 85.5005 98.0368 85.9593 97.7032 86.4568C97.4767 86.7458 97.2235 87.008 96.9911 87.288L90.1567 94.8911L83.3045 87.288C83.0721 87.008 82.8188 86.7458 82.5924 86.4568C82.2587 85.9593 82.2379 85.5005 82.226 85.3962V80.1289H78.2546V85.4886C78.2546 86.7756 78.8386 87.5681 80.0005 89.1382C80.6738 89.9425 81.1832 90.5205 81.5139 90.8661L88.1547 97.9865H92.1498L98.7757 90.8661C99.1064 90.5205 99.6158 89.9455 100.289 89.1382C101.454 87.5681 102.035 86.7786 102.035 85.4886V80.1289H98.0696Z" fill="white"/>
<path d="M57.4743 84.0763H76.2883V80.1168H55.073C55.0671 80.1168 54.0363 80.0185 53.1902 80.8557C52.3768 81.7107 52.493 82.7594 52.493 82.7803V87.2641H50.5208V90.8481H52.493V95.2901C52.493 95.311 52.3768 96.3597 53.1902 97.2147C54.0363 98.0549 55.0701 97.9536 55.073 97.9536H76.2883V93.9942H57.4743C56.8666 93.9793 56.515 93.5771 56.4793 93.1242V91.0477H72.2871V87.0466H56.4793V84.9462C56.515 84.4963 56.8636 84.0912 57.4743 84.0763Z" fill="white"/>
<path d="M31.7099 93.9975C31.1022 93.9826 30.7506 93.5804 30.7149 93.1276V91.4205H30.7089V80.1202H30.6851V80.1172H26.7227V84.8929H26.7286V95.2935C26.7286 95.3143 26.6124 96.363 27.4258 97.2181C28.2719 98.0582 29.3057 97.9539 29.3086 97.9569H50.5239V93.9975H31.7099Z" fill="white"/>
<path d="M4.93828 84.9521C4.97403 84.4992 5.32558 84.097 5.93335 84.0821H24.7473V80.1227H3.53207C3.52611 80.1227 2.49529 80.0244 1.64919 80.8616C0.835853 81.7166 0.949065 82.7653 0.949065 82.7861V95.296C0.949065 95.3169 0.832874 96.3656 1.64919 97.2206C2.49529 98.0578 3.52909 97.9565 3.53207 97.9595H24.7473V94H5.93335C5.32558 93.9851 4.97403 93.58 4.93828 93.1301V84.9521Z" fill="white"/>
<defs>
<linearGradient id="paint0_linear" x1="100.983" y1="5.08043" x2="97.7196" y2="68.2302" gradientUnits="userSpaceOnUse">
<stop offset="0.0714" stop-color="#484445"/>
<stop offset="0.511" stop-color="#3B3738"/>
<stop offset="1" stop-color="#413E3E"/>
</linearGradient>
<linearGradient id="paint1_linear" x1="101.208" y1="5.43667" x2="97.9605" y2="68.2668" gradientUnits="userSpaceOnUse">
<stop offset="0.0714" stop-color="#6C6A6A"/>
<stop offset="0.511" stop-color="#524F50"/>
<stop offset="1" stop-color="#5F5C5D"/>
</linearGradient>
<linearGradient id="paint2_linear" x1="101.432" y1="5.79301" x2="98.2013" y2="68.3034" gradientUnits="userSpaceOnUse">
<stop offset="0.0714" stop-color="#918F90"/>
<stop offset="0.511" stop-color="#6A6868"/>
<stop offset="1" stop-color="#7D7B7B"/>
</linearGradient>
<linearGradient id="paint3_linear" x1="101.656" y1="6.14863" x2="98.442" y2="68.3394" gradientUnits="userSpaceOnUse">
<stop offset="0.0714" stop-color="#B6B4B5"/>
<stop offset="0.511" stop-color="#818080"/>
<stop offset="1" stop-color="#9A9999"/>
</linearGradient>
<linearGradient id="paint4_linear" x1="101.88" y1="6.50458" x2="98.6828" y2="68.3757" gradientUnits="userSpaceOnUse">
<stop offset="0.0714" stop-color="#DADADA"/>
<stop offset="0.511" stop-color="#999898"/>
<stop offset="1" stop-color="#B8B8B8"/>
</linearGradient>
<linearGradient id="paint5_linear" x1="102.105" y1="6.86005" x2="98.9234" y2="68.4115" gradientUnits="userSpaceOnUse">
<stop offset="0.0714" stop-color="white"/>
<stop offset="0.511" stop-color="#969696"/>
<stop offset="1" stop-color="#C7C7C7"/>
</linearGradient>
<linearGradient id="paint6_linear" x1="57.0503" y1="5.73711" x2="52.2208" y2="68.0372" gradientUnits="userSpaceOnUse">
<stop offset="0.0714" stop-color="#3E3E2E"/>
<stop offset="0.511" stop-color="#343525"/>
<stop offset="1" stop-color="#3D3E26"/>
</linearGradient>
<linearGradient id="paint7_linear" x1="56.3832" y1="6.33854" x2="46.9739" y2="67.0184" gradientUnits="userSpaceOnUse">
<stop offset="0.0714" stop-color="#595E3B"/>
<stop offset="0.511" stop-color="#454B2A"/>
<stop offset="1" stop-color="#585D2B"/>
</linearGradient>
<linearGradient id="paint8_linear" x1="156.419" y1="-75.9129" x2="156.419" y2="-75.9129" gradientUnits="userSpaceOnUse">
<stop offset="0.0714" stop-color="#747D49"/>
<stop offset="0.511" stop-color="#57612F"/>
<stop offset="1" stop-color="#727C31"/>
</linearGradient>
<linearGradient id="paint9_linear" x1="55.3277" y1="5.47762" x2="64.887" y2="67.1252" gradientUnits="userSpaceOnUse">
<stop offset="0.0714" stop-color="#8E9C56"/>
<stop offset="0.511" stop-color="#687634"/>
<stop offset="1" stop-color="#8C9A37"/>
</linearGradient>
<linearGradient id="paint10_linear" x1="54.8531" y1="6.35197" x2="59.6471" y2="68.1931" gradientUnits="userSpaceOnUse">
<stop offset="0.0714" stop-color="#A9BC63"/>
<stop offset="0.511" stop-color="#798C39"/>
<stop offset="1" stop-color="#A7B93C"/>
</linearGradient>
<linearGradient id="paint11_linear" x1="54.4167" y1="6.85982" x2="57.5982" y2="68.4177" gradientUnits="userSpaceOnUse">
<stop offset="0.0714" stop-color="#C4DB71"/>
<stop offset="0.511" stop-color="#8AA23E"/>
<stop offset="1" stop-color="#C1D842"/>
</linearGradient>
<linearGradient id="paint12_linear" x1="100.983" y1="5.10021" x2="97.7196" y2="68.25" gradientUnits="userSpaceOnUse">
<stop offset="0.0714" stop-color="#484445"/>
<stop offset="0.511" stop-color="#3B3738"/>
<stop offset="1" stop-color="#413E3E"/>
</linearGradient>
<linearGradient id="paint13_linear" x1="101.208" y1="5.45646" x2="97.9605" y2="68.2866" gradientUnits="userSpaceOnUse">
<stop offset="0.0714" stop-color="#6C6A6A"/>
<stop offset="0.511" stop-color="#524F50"/>
<stop offset="1" stop-color="#5F5C5D"/>
</linearGradient>
<linearGradient id="paint14_linear" x1="101.432" y1="5.81281" x2="98.2013" y2="68.3234" gradientUnits="userSpaceOnUse">
<stop offset="0.0714" stop-color="#918F90"/>
<stop offset="0.511" stop-color="#6A6868"/>
<stop offset="1" stop-color="#7D7B7B"/>
</linearGradient>
<linearGradient id="paint15_linear" x1="101.656" y1="6.16845" x2="98.442" y2="68.3594" gradientUnits="userSpaceOnUse">
<stop offset="0.0714" stop-color="#B6B4B5"/>
<stop offset="0.511" stop-color="#818080"/>
<stop offset="1" stop-color="#9A9999"/>
</linearGradient>
<linearGradient id="paint16_linear" x1="101.88" y1="6.5245" x2="98.6828" y2="68.3958" gradientUnits="userSpaceOnUse">
<stop offset="0.0714" stop-color="#DADADA"/>
<stop offset="0.511" stop-color="#999898"/>
<stop offset="1" stop-color="#B8B8B8"/>
</linearGradient>
<linearGradient id="paint17_linear" x1="102.105" y1="6.87985" x2="98.9233" y2="68.4315" gradientUnits="userSpaceOnUse">
<stop offset="0.0714" stop-color="white"/>
<stop offset="0.511" stop-color="#969696"/>
<stop offset="1" stop-color="#C7C7C7"/>
</linearGradient>
<linearGradient id="paint18_linear" x1="57.0503" y1="5.75688" x2="52.2208" y2="68.0569" gradientUnits="userSpaceOnUse">
<stop offset="0.0714" stop-color="#3E3E2E"/>
<stop offset="0.511" stop-color="#343525"/>
<stop offset="1" stop-color="#3D3E26"/>
</linearGradient>
<linearGradient id="paint19_linear" x1="56.3832" y1="6.35833" x2="46.9738" y2="67.0381" gradientUnits="userSpaceOnUse">
<stop offset="0.0714" stop-color="#595E3B"/>
<stop offset="0.511" stop-color="#454B2A"/>
<stop offset="1" stop-color="#585D2B"/>
</linearGradient>
<linearGradient id="paint20_linear" x1="156.419" y1="-75.9143" x2="156.419" y2="-75.9143" gradientUnits="userSpaceOnUse">
<stop offset="0.0714" stop-color="#747D49"/>
<stop offset="0.511" stop-color="#57612F"/>
<stop offset="1" stop-color="#727C31"/>
</linearGradient>
<linearGradient id="paint21_linear" x1="55.3277" y1="5.49742" x2="64.8871" y2="67.1452" gradientUnits="userSpaceOnUse">
<stop offset="0.0714" stop-color="#8E9C56"/>
<stop offset="0.511" stop-color="#687634"/>
<stop offset="1" stop-color="#8C9A37"/>
</linearGradient>
<linearGradient id="paint22_linear" x1="54.8531" y1="6.37184" x2="59.6471" y2="68.2132" gradientUnits="userSpaceOnUse">
<stop offset="0.0714" stop-color="#A9BC63"/>
<stop offset="0.511" stop-color="#798C39"/>
<stop offset="1" stop-color="#A7B93C"/>
</linearGradient>
<linearGradient id="paint23_linear" x1="54.4167" y1="6.87964" x2="57.5982" y2="68.4378" gradientUnits="userSpaceOnUse">
<stop offset="0.0714" stop-color="#C4DB71"/>
<stop offset="0.511" stop-color="#8AA23E"/>
<stop offset="1" stop-color="#C1D842"/>
</linearGradient>
</defs>
</svg>
