<svg id="Capa_1" data-name="Capa 1" xmlns="http://www.w3.org/2000/svg" xmlns:xlink="http://www.w3.org/1999/xlink" viewBox="0 0 426 533"><defs><style>.cls-1,.cls-2,.cls-3,.cls-5{fill:#fff;}.cls-1,.cls-2{clip-rule:evenodd;}.cls-2{clip-path:url(#clip-path);}.cls-3{fill-rule:evenodd;}.cls-4{clip-path:url(#clip-path-2);}</style><clipPath id="clip-path"><path class="cls-1" d="M297.33,181.69a118.53,118.53,0,0,0-186.53,143L94,386.05l62.83-16.48A118.4,118.4,0,0,0,213.45,384h.05a118.53,118.53,0,0,0,83.83-202.3M213.5,364h0a98.32,98.32,0,0,1-50.14-13.72l-3.59-2.14-37.29,9.78,9.95-36.34-2.34-3.72A98.51,98.51,0,1,1,213.5,364"/></clipPath><clipPath id="clip-path-2"><path class="cls-2" d="M267.53,290.23c-3-1.48-17.52-8.64-20.23-9.63s-4.69-1.48-6.67,1.49-7.65,9.63-9.38,11.6-3.45,2.22-6.41.74-12.5-4.61-23.82-14.69a89.07,89.07,0,0,1-16.46-20.52c-1.74-3-.19-4.56,1.29-6s3-3.46,4.45-5.19a20.56,20.56,0,0,0,3-4.94,5.48,5.48,0,0,0-.25-5.19c-.74-1.48-6.66-16.05-9.13-22-2.41-5.77-4.85-5-6.66-5.08s-3.71-.1-5.68-.1a10.89,10.89,0,0,0-7.9,3.71c-2.71,3-10.36,10.12-10.36,24.69s10.61,28.65,12.09,30.62,20.88,31.88,50.59,44.7a166.49,166.49,0,0,0,16.88,6.24,40.53,40.53,0,0,0,18.65,1.17c5.69-.85,17.52-7.16,20-14.08s2.47-12.84,1.72-14.07-2.7-2-5.67-3.46"/></clipPath></defs><path class="cls-3" d="M297.33,181.69a118.53,118.53,0,0,0-186.53,143L94,386.05l62.83-16.48A118.4,118.4,0,0,0,213.45,384h.05a118.53,118.53,0,0,0,83.83-202.3M213.5,364h0a98.32,98.32,0,0,1-50.14-13.72l-3.59-2.14-37.29,9.78,9.95-36.34-2.34-3.72A98.51,98.51,0,1,1,213.5,364"/><path class="cls-3" d="M267.53,290.23c-3-1.48-17.52-8.64-20.23-9.63s-4.69-1.48-6.67,1.49-7.65,9.63-9.38,11.6-3.45,2.22-6.41.74-12.5-4.61-23.82-14.69a89.07,89.07,0,0,1-16.46-20.52c-1.74-3-.19-4.56,1.29-6s3-3.46,4.45-5.19a20.56,20.56,0,0,0,3-4.94,5.48,5.48,0,0,0-.25-5.19c-.74-1.48-6.66-16.05-9.13-22-2.41-5.77-4.85-5-6.66-5.08s-3.71-.1-5.68-.1a10.89,10.89,0,0,0-7.9,3.71c-2.71,3-10.36,10.12-10.36,24.69s10.61,28.65,12.09,30.62,20.88,31.88,50.59,44.7a166.49,166.49,0,0,0,16.88,6.24,40.53,40.53,0,0,0,18.65,1.17c5.69-.85,17.52-7.16,20-14.08s2.47-12.84,1.72-14.07-2.7-2-5.67-3.46"/><g class="cls-4"><rect class="cls-5" x="50.3" y="103.8" width="325.4" height="325.4" rx="59.39"/></g></svg>