<svg id="Capa_1" data-name="Capa 1" xmlns="http://www.w3.org/2000/svg" xmlns:xlink="http://www.w3.org/1999/xlink" viewBox="0 0 426 533"><defs><style>.cls-1{fill:#fff;}.cls-2{clip-path:url(#clip-path);}</style><clipPath id="clip-path"><path class="cls-1" d="M338.64,215.24s-2.51-17.67-10.19-25.45c-9.75-10.21-20.68-10.27-25.69-10.87-35.88-2.59-89.71-2.59-89.71-2.59H213s-53.83,0-89.71,2.59c-5,.6-15.94.66-25.69,10.87-7.68,7.78-10.19,25.45-10.19,25.45a388.12,388.12,0,0,0-2.56,41.49v19.46a388.37,388.37,0,0,0,2.56,41.49s2.51,17.67,10.19,25.45c9.75,10.21,22.57,9.89,28.27,11,20.52,2,87.18,2.58,87.18,2.58s53.88-.08,89.76-2.67c5-.6,15.94-.66,25.69-10.87,7.68-7.78,10.19-25.45,10.19-25.45a388.37,388.37,0,0,0,2.56-41.49V256.73A388.12,388.12,0,0,0,338.64,215.24ZM186.52,299.76v-72l69.28,36.16Z"/></clipPath></defs><path class="cls-1" d="M338.64,215.24s-2.51-17.67-10.19-25.45c-9.75-10.21-20.68-10.27-25.69-10.87-35.88-2.59-89.71-2.59-89.71-2.59H213s-53.83,0-89.71,2.59c-5,.6-15.94.66-25.69,10.87-7.68,7.78-10.19,25.45-10.19,25.45a388.12,388.12,0,0,0-2.56,41.49v19.46a388.37,388.37,0,0,0,2.56,41.49s2.51,17.67,10.19,25.45c9.75,10.21,22.57,9.89,28.27,11,20.52,2,87.18,2.58,87.18,2.58s53.88-.08,89.76-2.67c5-.6,15.94-.66,25.69-10.87,7.68-7.78,10.19-25.45,10.19-25.45a388.37,388.37,0,0,0,2.56-41.49V256.73A388.12,388.12,0,0,0,338.64,215.24ZM186.52,299.76v-72l69.28,36.16Z"/><g class="cls-2"><rect class="cls-1" x="14.63" y="68.13" width="396.74" height="396.74" rx="72.41"/></g></svg>